<svg xmlns="http://www.w3.org/2000/svg" viewBox="0 0 120 120" width="120" height="120" role="img" aria-label="Castralis Kinetic Conduit mark">
  <!-- Kinetic Conduit — exact vector trace of the master artwork (assets PNG, ChatGPT Jul 4 2026).
       Linework inherits currentColor; core is the exclusive amber-bronze energy accent. -->
  <path d="M21.7,11.9 57.5,12.1 57.6,17.6 48.1,17.6 48.1,18.9 83.3,54.7 80.2,57.9 79.1,57.5 39.1,17.6 21.7,17.6 17.9,21.6 17.9,39.2 32.2,54.3 28.3,57.6 19.2,48.3 17.9,48.3 17.9,57.0 12.4,57.1 12.4,20.4 15.5,14.6 21.7,11.9ZM62.6,11.9 99.1,12.1 103.9,14.1 106.6,17.7 107.7,20.9 107.7,57.0 102.2,57.0 102.2,48.2 100.9,48.1 66.3,83.5 62.6,79.7 102.1,39.1 102.2,21.6 98.3,17.6 80.6,17.6 65.6,32.1 62.5,28.2 71.7,18.9 71.7,17.7 62.6,17.6 62.6,11.9ZM53.3,36.8 57.1,40.5 17.9,81.0 17.9,98.8 22.1,102.4 40.1,102.4 54.7,88.5 57.9,92.3 49.2,101.1 49.2,102.3 57.5,102.4 57.7,108.0 21.9,108.1 18.6,107.2 14.0,103.4 12.3,98.9 12.3,62.5 17.8,62.5 17.9,72.1 19.2,72.1 53.3,36.8ZM59.4,49.5 70.2,59.5 60.4,70.2 49.6,60.1 59.4,49.5ZM90.9,62.3 100.9,72.0 102.2,71.9 102.2,62.5 107.7,62.5 107.5,100.2 104.0,105.6 98.1,108.1 62.6,108.1 62.6,102.3 71.2,102.3 71.2,101.0 36.7,66.2 40.6,62.4 80.3,102.3 98.1,102.3 102.1,98.1 102.1,81.2 87.7,66.3 90.9,62.3Z" fill="currentColor" fill-rule="evenodd"/>
  <path d="M59.8,49.6 70.2,59.7 59.9,69.9 49.8,59.8 59.8,49.6Z" fill="#B5660A"/>
</svg>
